<?xml version="1.0" encoding="UTF-8"?>
<svg width="225px" height="43px" viewBox="0 0 225 43" version="1.1" xmlns="http://www.w3.org/2000/svg" xmlns:xlink="http://www.w3.org/1999/xlink">
    <!-- Generator: Sketch 55.2 (78181) - https://sketchapp.com -->
    <title>Artboard</title>
    <desc>Created with Sketch.</desc>
    <g id="Artboard" stroke="none" stroke-width="1" fill="none" fill-rule="evenodd">
        <g id="Group" fill-rule="nonzero">
            <g transform="translate(52.381818, 10.163636)">
                <path d="M0.390909091,21.0309091 L4.45636364,1.87636364 L19.7018182,1.87636364 C20.7181818,1.87636364 21.5,1.95454545 22.2036364,2.11090909 C22.8290909,2.26727273 23.3763636,2.50181818 23.6890909,2.89272727 C24.0018182,3.28363636 24.2363636,3.75272727 24.3145455,4.37818182 C24.3927273,5.00363636 24.3145455,5.78545455 24.08,6.72363636 L23.8454545,7.89636364 C23.4545455,9.69454545 22.36,10.7890909 20.64,11.0236364 C21.4218182,11.1018182 22.0472727,11.4927273 22.5163636,12.04 C22.9854545,12.5872727 23.0636364,13.4472727 22.8290909,14.62 L22.5945455,15.8709091 C22.36,16.8872727 22.1254545,17.6690909 21.7345455,18.2945455 C21.3436364,18.92 20.9527273,19.4672727 20.3272727,19.8581818 C19.78,20.2490909 19.0763636,20.4836364 18.2945455,20.64 C17.5127273,20.7963636 16.6527273,20.8745455 15.6363636,20.8745455 L0.390909091,20.8745455 L0.390909091,21.0309091 Z M20.2490909,7.34909091 C20.4054545,6.72363636 20.3272727,6.33272727 20.1709091,6.09818182 C19.9363636,5.86363636 19.5454545,5.70727273 18.92,5.70727273 L7.42727273,5.70727273 L6.56727273,9.85090909 L18.06,9.85090909 C18.6854545,9.85090909 19.0763636,9.69454545 19.3890909,9.46 C19.7018182,9.22545455 19.9363636,8.75636364 20.0927273,8.05272727 L20.2490909,7.34909091 Z M19.0763636,14.8545455 C19.2327273,14.1509091 19.2327273,13.6818182 18.9981818,13.3690909 C18.7636364,13.0563636 18.2945455,12.9781818 17.5127273,12.9781818 L5.86363636,12.9781818 L4.92545455,17.3563636 L16.4181818,17.3563636 C17.2781818,17.3563636 17.8254545,17.2 18.2163636,16.9654545 C18.5290909,16.7309091 18.7636364,16.2618182 18.92,15.6363636 L19.0763636,14.8545455 Z" id="Shape" fill="#3B414A"></path>
                <path d="M27.9890909,4.76909091 L28.8490909,0.781818182 L32.6018182,0.781818182 L31.7418182,4.76909091 L27.9890909,4.76909091 Z M24.5490909,21.0309091 L27.7545455,6.02 L31.5072727,6.02 L28.3018182,21.0309091 L24.5490909,21.0309091 Z" id="Shape" fill="#3B414A"></path>
                <polygon id="Path" fill="#3B414A" points="43.7818182 21.0309091 39.56 15.7145455 35.9636364 18.4509091 35.4163636 21.0309091 31.6636364 21.0309091 35.8072727 1.40727273 39.7945455 0.156363636 36.8236364 14.2290909 47.1436364 6.02 51.7563636 6.02 42.2963636 13.4472727 48.5509091 21.0309091"></polygon>
                <path d="M55.1963636,21.0309091 C53.3981818,21.0309091 52.0690909,20.64 51.2090909,19.78 C50.3490909,18.92 50.1145455,17.5909091 50.5054545,15.7145455 L51.4436364,11.2581818 C51.8345455,9.38181818 52.6163636,8.05272727 53.7890909,7.19272727 C54.9618182,6.33272727 56.4472727,5.94181818 58.3236364,5.94181818 L63.3272727,5.94181818 C65.1254545,5.94181818 66.4545455,6.33272727 67.3145455,7.19272727 C68.1745455,8.05272727 68.4090909,9.38181818 68.0181818,11.2581818 L67.2363636,14.7763636 L54.4145455,14.7763636 L54.2581818,15.7145455 C54.1018182,16.4963636 54.18,17.0436364 54.4927273,17.3563636 C54.8054545,17.6690909 55.2745455,17.8254545 55.9,17.8254545 L66.3763636,17.8254545 L65.2036364,21.0309091 L55.1963636,21.0309091 Z M64.2654545,11.5709091 C64.4218182,10.7109091 64.4218182,10.1636364 64.1872727,9.85090909 C63.9527273,9.53818182 63.4836364,9.38181818 62.7018182,9.38181818 L57.7763636,9.38181818 C57.0727273,9.38181818 56.4472727,9.53818182 56.0563636,9.85090909 C55.6654545,10.1636364 55.4309091,10.7109091 55.2745455,11.4145455 L55.04,12.5872727 L64.1090909,12.5872727 L64.2654545,11.5709091 Z" id="Shape" fill="#3B414A"></path>
                <path d="M69.1127273,21.0309091 L73.1781818,1.87636364 L89.2836364,1.87636364 C90.4563636,1.87636364 91.3945455,1.95454545 92.0981818,2.18909091 C92.8018182,2.42363636 93.3490909,2.73636364 93.74,3.20545455 C94.0527273,3.67454545 94.2872727,4.3 94.2872727,5.16 C94.2872727,5.94181818 94.2090909,6.95818182 93.9745455,8.05272727 L92.5672727,14.7763636 C92.3327273,15.9490909 92.02,16.8872727 91.6290909,17.7472727 C91.2381818,18.5290909 90.7690909,19.1545455 90.2218182,19.7018182 C89.6745455,20.1709091 88.9709091,20.5618182 88.1890909,20.7181818 C87.4072727,20.9527273 86.3909091,21.0309091 85.2181818,21.0309091 L69.1127273,21.0309091 L69.1127273,21.0309091 Z M90.2218182,8.13090909 C90.4563636,7.19272727 90.3781818,6.56727273 90.1436364,6.17636364 C89.9090909,5.86363636 89.3618182,5.62909091 88.5018182,5.62909091 L76.2272727,5.62909091 L73.8036364,17.2 L86,17.2 C86.86,17.2 87.4854545,17.0436364 87.8763636,16.7309091 C88.2672727,16.4181818 88.58,15.7927273 88.7363636,14.8545455 L90.2218182,8.13090909 Z" id="Shape" fill="#D22527"></path>
                <path d="M100.229091,21.0309091 C98.4309091,21.0309091 97.1018182,20.64 96.2418182,19.78 C95.3818182,18.92 95.1472727,17.5909091 95.5381818,15.7145455 L96.4763636,11.2581818 C96.8672727,9.38181818 97.6490909,8.05272727 98.8218182,7.19272727 C99.9945455,6.33272727 101.48,5.94181818 103.356364,5.94181818 L108.36,5.94181818 C110.158182,5.94181818 111.487273,6.33272727 112.347273,7.19272727 C113.207273,8.05272727 113.441818,9.38181818 113.050909,11.2581818 L112.269091,14.7763636 L99.5254545,14.7763636 L99.2909091,15.7145455 C99.1345455,16.4963636 99.2127273,17.0436364 99.5254545,17.3563636 C99.8381818,17.6690909 100.307273,17.8254545 100.932727,17.8254545 L111.409091,17.8254545 L110.236364,21.0309091 L100.229091,21.0309091 Z M109.298182,11.5709091 C109.454545,10.7109091 109.454545,10.1636364 109.22,9.85090909 C108.985455,9.53818182 108.516364,9.38181818 107.734545,9.38181818 L102.809091,9.38181818 C102.105455,9.38181818 101.48,9.53818182 101.089091,9.85090909 C100.698182,10.1636364 100.463636,10.7109091 100.307273,11.4145455 L100.072727,12.5872727 L109.141818,12.5872727 L109.298182,11.5709091 Z" id="Shape" fill="#D22527"></path>
                <polygon id="Path" fill="#D22527" points="126.263636 21.0309091 122.041818 15.7145455 118.445455 18.4509091 117.898182 21.0309091 114.145455 21.0309091 118.289091 1.40727273 122.276364 0.156363636 119.305455 14.2290909 129.625455 6.02 134.238182 6.02 124.778182 13.4472727 131.032727 21.0309091"></polygon>
                <path d="M145.496364,21.0309091 L147.529091,11.5709091 C147.685455,10.7890909 147.685455,10.2418182 147.450909,9.85090909 C147.216364,9.46 146.747273,9.30363636 145.965455,9.30363636 L141.118182,9.30363636 C140.570909,9.30363636 140.18,9.38181818 139.789091,9.61636364 C139.398182,9.85090909 139.163636,10.2418182 138.929091,10.7109091 L136.74,21.0309091 L132.987273,21.0309091 L137.130909,1.40727273 L141.118182,0.156363636 L139.398182,8.20909091 C139.945455,7.42727273 140.570909,6.88 141.196364,6.56727273 C141.821818,6.25454545 142.603636,6.09818182 143.463636,6.09818182 L146.590909,6.09818182 C147.685455,6.09818182 148.545455,6.25454545 149.249091,6.48909091 C149.952727,6.72363636 150.421818,7.11454545 150.812727,7.58363636 C151.125455,8.05272727 151.36,8.67818182 151.36,9.46 C151.36,10.2418182 151.281818,11.1018182 151.125455,12.1181818 L149.249091,21.1090909 L145.496364,21.1090909 L145.496364,21.0309091 Z" id="Path" fill="#D22527"></path>
                <path d="M158.24,21.0309091 C156.207273,21.0309091 154.878182,20.64 154.096364,19.78 C153.392727,18.92 153.158182,17.5909091 153.627273,15.7145455 L154.565455,11.2581818 C154.956364,9.38181818 155.738182,8.05272727 156.754545,7.19272727 C157.849091,6.33272727 159.412727,5.94181818 161.445455,5.94181818 L166.449091,5.94181818 C168.481818,5.94181818 169.889091,6.33272727 170.592727,7.19272727 C171.296364,8.05272727 171.530909,9.38181818 171.061818,11.2581818 L170.123636,15.7145455 C169.732727,17.5909091 168.950909,18.92 167.934545,19.78 C166.84,20.64 165.276364,21.0309091 163.243636,21.0309091 L158.24,21.0309091 Z M167.309091,11.3363636 C167.465455,10.5545455 167.387273,10.0072727 167.152727,9.69454545 C166.918182,9.38181818 166.370909,9.22545455 165.667273,9.22545455 L160.741818,9.22545455 C160.038182,9.22545455 159.490909,9.38181818 159.1,9.69454545 C158.709091,10.0072727 158.396364,10.5545455 158.24,11.3363636 L157.301818,15.7927273 C157.145455,16.5745455 157.223636,17.1218182 157.458182,17.4345455 C157.692727,17.7472727 158.24,17.9036364 158.943636,17.9036364 L163.869091,17.9036364 C164.572727,17.9036364 165.12,17.7472727 165.510909,17.4345455 C165.901818,17.1218182 166.214545,16.5745455 166.370909,15.7927273 L167.309091,11.3363636 Z" id="Shape" fill="#D22527"></path>
            </g>
            <path d="M39.9509091,0.469090909 L11.4145455,0.469090909 C8.05272727,0.469090909 5.31636364,3.20545455 5.31636364,6.56727273 L5.31636364,25.5654545 L6.64545455,23.9236364 L6.64545455,6.88 C6.64545455,4.06545455 8.91272727,1.72 11.8054545,1.72 L39.6381818,1.72 C42.4527273,1.72 44.7981818,3.98727273 44.7981818,6.88 L44.7981818,34.7127273 C44.7981818,37.5272727 42.5309091,39.8727273 39.6381818,39.8727273 L11.8054545,39.8727273 C11.8054545,39.8727273 11.8054545,39.8727273 11.8054545,39.8727273 C11.3363636,40.3418182 10.9454545,40.7327273 10.4763636,41.1236364 C10.7890909,41.2018182 11.18,41.2018182 11.4927273,41.2018182 L40.0290909,41.2018182 C43.3909091,41.2018182 46.1272727,38.4654545 46.1272727,35.1036364 L46.1272727,6.56727273 C46.1272727,3.20545455 43.3909091,0.469090909 39.9509091,0.469090909 Z" id="Path" fill="#D22527"></path>
            <g transform="translate(0.000000, 4.690909)" fill="#D22527">
                <path d="M17.2,16.1054545 C16.5745455,15.7927273 15.7145455,15.7927273 14.7763636,16.0272727 L18.7636364,11.0236364 C18.2945455,10.4763636 18.06,9.85090909 17.9818182,9.06909091 C17.9818182,8.6 17.9818182,8.20909091 18.1381818,7.74 L6.25454545,22.4381818 C5.94181818,22.7509091 5.70727273,23.1418182 5.39454545,23.4545455 C0.938181818,29.1618182 -0.781818182,34.7909091 1.01636364,36.6672727 C1.32909091,37.0581818 2.03272727,37.7618182 3.36181818,37.9963636 C5.39454545,38.3872727 9.61636364,35.6509091 13.9945455,30.0218182 C18.3727273,24.3927273 20.1709091,19.4672727 19.0763636,17.6690909 C18.7636364,17.2 18.1381818,16.5745455 17.2,16.1054545 Z M12.6654545,29.1618182 C9.14727273,33.6181818 5.47272727,36.5890909 4.45636364,35.8072727 C3.44,35.0254545 5.55090909,30.8036364 9.06909091,26.3472727 C12.5872727,21.8909091 16.2618182,18.92 17.2,19.7018182 C18.2945455,20.4836364 16.1836364,24.7054545 12.6654545,29.1618182 Z" id="Shape"></path>
                <path d="M43.7818182,17.9818182 C43.7036364,17.9818182 43.7036364,17.9818182 43.7818182,17.9818182 C43.7036364,17.9036364 43.7036364,17.9036364 43.7036364,17.9036364 C43.3909091,17.6690909 42.9218182,17.6690909 42.6872727,17.9818182 L39.4036364,21.9690909 C39.4036364,21.2654545 39.2472727,20.7181818 38.9345455,20.3272727 C37.9181818,19.3109091 37.1363636,18.6854545 36.5109091,18.2945455 C35.1036364,17.4345455 32.2109091,18.92 29.8654545,22.0472727 C27.52,25.0963636 26.8163636,28.3018182 28.0672727,29.4745455 C28.5363636,29.9436364 30.1781818,30.96 30.8818182,31.1945455 C32.4454545,31.7418182 34.7127273,30.3345455 36.98,27.3636364 C36.98,27.2854545 37.0581818,27.2854545 37.0581818,27.2072727 L43.7818182,18.9981818 C44.0163636,18.6072727 44.0163636,18.2163636 43.7818182,17.9818182 Z M35.9636364,26.5818182 C34.6345455,28.3018182 33.2272727,29.4745455 32.8363636,29.1618182 C32.4454545,28.8490909 33.3054545,27.2854545 34.6345455,25.5654545 C35.9636364,23.8454545 37.3709091,22.6727273 37.7618182,22.9854545 C38.1527273,23.22 37.2927273,24.8618182 35.9636364,26.5818182 Z" id="Shape"></path>
                <path d="M19.8581818,11.2581818 L31.8981818,19.0763636 C32.4454545,18.6072727 33.0709091,18.2945455 33.6181818,17.9818182 C29.7872727,16.2618182 30.5690909,10.1636364 24.6272727,9.46 C24.7836364,9.14727273 24.94,8.83454545 25.0963636,8.52181818 L31.0381818,10.32 C31.4290909,10.3981818 31.82,10.2418182 31.8981818,9.85090909 C31.9763636,9.46 31.82,9.06909091 31.4290909,8.99090909 L25.3309091,7.19272727 C25.3309091,7.19272727 25.3309091,7.19272727 25.3309091,7.19272727 C25.3309091,6.25454545 24.94,5.39454545 24.2363636,4.92545455 C23.4545455,4.37818182 22.36,4.3 21.3436364,4.76909091 L17.2,0.390909091 C16.9654545,0.0781818182 16.4963636,0.0781818182 16.1836364,0.390909091 C15.8709091,0.625454545 15.8709091,1.09454545 16.1836364,1.40727273 L20.1709091,5.62909091 C19.9363636,5.86363636 19.7018182,6.09818182 19.4672727,6.41090909 C18.2945455,8.13090909 18.3727273,10.2418182 19.7018182,11.2581818 C19.7018182,11.2581818 19.7018182,11.2581818 19.7018182,11.2581818 L19.7018182,11.2581818 C19.7018182,11.2581818 19.7018182,11.2581818 19.78,11.2581818 C19.7018182,11.18 19.78,11.18 19.8581818,11.2581818 Z" id="Path"></path>
            </g>
        </g>
    </g>
</svg>